PathFileType	4	(X/Y/Z)	s09c0303.trc
DataRate	CameraRate	NumFrames	NumMarkers	Units	OrigDataRate	OrigDataStartFrame	OrigNumFrames
200	200	5	50	mm	200	750	2000
Frame#	Time	racr			lacr			c7			jug			rlel			rdr			llel			ldr			s2			lic			ric			lasi			rasi			rpsi			lpsi			rgt			lgt			rth1			rth2			rth3			rth4			rlfc			rmfc			rsh1			rsh2			rsh3			rsh4			rlmal			rmmal			rcal			rtoe			rmt5			lth1			lth2			lth4			lth3			llfc			lmfc			llmal			lmmal			lcal			lmt5			lsh1			lsh2			lsh3			lsh4			ltoe			SBIKE			LBIKE			RBIKE			
		X1	Y1	Z1	X2	Y2	Z2	X3	Y3	Z3	X4	Y4	Z4	X5	Y5	Z5	X6	Y6	Z6	X7	Y7	Z7	X8	Y8	Z8	X9	Y9	Z9	X10	Y10	Z10	X11	Y11	Z11	X12	Y12	Z12	X13	Y13	Z13	X14	Y14	Z14	X15	Y15	Z15	X16	Y16	Z16	X17	Y17	Z17	X18	Y18	Z18	X19	Y19	Z19	X20	Y20	Z20	X21	Y21	Z21	X22	Y22	Z22	X23	Y23	Z23	X24	Y24	Z24	X25	Y25	Z25	X26	Y26	Z26	X27	Y27	Z27	X28	Y28	Z28	X29	Y29	Z29	X30	Y30	Z30	X31	Y31	Z31	X32	Y32	Z32	X33	Y33	Z33	X34	Y34	Z34	X35	Y35	Z35	X36	Y36	Z36	X37	Y37	Z37	X38	Y38	Z38	X39	Y39	Z39	X40	Y40	Z40	X41	Y41	Z41	X42	Y42	Z42	X43	Y43	Z43	X44	Y44	Z44	X45	Y45	Z45	X46	Y46	Z46	X47	Y47	Z47	X48	Y48	Z48	X49	Y49	Z49	X50	Y50	Z50	
750	3.7500	788.788179	1320.464360	-110.146903	761.201616	1252.344466	-456.108534	770.794573	1346.578091	-279.349396	770.684537	1209.873127	-269.629445	659.004188	1102.548961	-11.264607	726.793263	869.541691	-58.288991	559.274874	1059.896490	-521.769739	716.376893	885.962124	-441.879808	290.308267	1187.288495	-202.278966	405.196913	1168.531714	-373.587807	448.737614	1128.059422	-83.382565	431.628361	1105.188612	-361.605090	469.204631	1068.087738	-114.748558	337.609756	1199.020417	-147.433557	320.451377	1222.592342	-251.986971	373.422503	994.265982	-47.249295	344.266755	1065.126355	-418.400216	383.495939	867.865089	-59.546730	409.168559	783.578509	-70.624574	382.355107	699.212324	-79.190348	437.164513	784.380490	-94.567644	374.991747	607.805642	-108.512025	342.026032	588.135612	-202.948034	324.607181	521.168512	-70.085761	326.353216	432.060943	-80.417491	283.674155	355.253034	-76.423080	348.217926	428.474942	-114.014414	251.178631	259.715491	-73.982539	252.916901	266.806640	-149.266809	173.990460	268.188060	-106.392134	384.566856	108.087746	-133.394295	311.704401	139.229148	-61.990190	446.969760	967.655734	-432.353340	524.383139	931.759626	-429.606473	548.489672	956.633449	-414.056200	576.270523	858.365077	-437.243069	622.885211	771.784254	-424.408006	632.975554	748.649921	-325.526665	295.739891	608.771046	-420.429017	311.322705	610.748510	-346.836020	212.509732	630.708137	-381.378415	310.390633	484.002608	-435.140827	534.743303	728.286359	-441.474364	467.566080	673.837910	-429.965333	380.031637	659.226935	-425.782145	481.526655	650.391285	-401.505826	395.054426	446.024374	-359.121018	-64.198953	850.891919	-240.187504	21.202185	84.212376	-442.297267	21.206786	84.042817	-43.820372	
751	3.7550	791.061464	1320.283329	-115.183362	757.346425	1252.083217	-461.551342	770.126064	1346.328829	-283.685328	770.209386	1210.838703	-274.615736	662.134803	1103.280850	-13.875832	726.863041	869.426982	-58.423479	555.156676	1057.752984	-521.251190	715.952319	886.636805	-441.855455	292.465618	1187.937525	-199.593674	403.305235	1171.090670	-372.043560	451.677967	1128.032363	-82.668037	430.243017	1107.613390	-360.418994	470.450811	1067.802654	-114.419923	339.537243	1200.269170	-144.253219	320.102696	1224.391589	-250.120564	373.863482	995.114807	-46.821935	343.042169	1068.252606	-416.442857	382.720998	868.912387	-59.423785	407.393243	784.528580	-69.129508	380.078730	700.421822	-77.110634	435.322529	784.885330	-93.363503	370.138353	608.766974	-106.705468	336.793385	589.658749	-201.500199	320.466132	522.382005	-68.343537	321.537882	433.261854	-79.215245	278.532884	356.800260	-74.933268	343.228187	429.730673	-112.870155	245.361605	261.163782	-72.616174	246.921037	268.440153	-147.945897	168.220485	271.349664	-105.152320	374.747015	106.733725	-133.744198	303.074592	139.149487	-61.969409	446.363052	971.518045	-430.380984	524.124235	936.435777	-428.009419	547.964076	961.568787	-412.620576	576.896761	863.562861	-435.884250	625.262464	777.916350	-423.454173	636.123856	754.410405	-324.559983	301.371238	607.929137	-419.427892	317.168381	610.405278	-345.951535	217.203962	627.749571	-380.235247	319.714071	484.179369	-435.264535	537.837636	732.467037	-440.371398	471.860979	676.408316	-428.979879	384.553766	660.246158	-424.786447	486.265910	653.479558	-400.776424	405.088912	448.399543	-359.775251	-64.210530	850.910247	-240.180476	21.175775	84.224074	-442.268319	21.226018	84.073035	-43.840016	
752	3.7600	793.210382	1319.900316	-120.151693	753.454453	1252.088527	-466.712078	769.405411	1346.085901	-287.877353	769.602670	1211.562938	-279.754892	664.857344	1103.972429	-16.497841	727.266715	869.241773	-58.509757	551.296614	1055.538983	-520.657799	715.551622	887.181835	-441.960897	293.768129	1189.377162	-196.776020	401.564921	1173.727618	-370.603636	454.402470	1128.193723	-82.275916	429.202184	1110.138915	-359.715985	471.654457	1067.985754	-114.322234	341.320383	1201.604784	-141.343608	320.403700	1226.260586	-246.738606	374.463141	996.523553	-45.403528	342.052060	1071.450451	-414.560613	382.391595	870.244714	-58.081071	406.344262	785.321274	-68.044772	377.720772	701.794448	-74.964059	433.890615	785.710509	-92.173076	366.414302	610.027370	-104.652705	332.601678	591.550109	-200.302390	317.122551	523.654946	-66.900874	316.960477	434.535262	-78.741347	273.350411	358.505856	-73.599889	338.382393	430.884980	-111.930837	238.842843	263.067788	-71.301331	240.197352	270.545003	-146.690500	161.779845	274.478518	-103.727760	364.860778	106.126347	-133.897617	294.457880	139.726557	-61.851618	445.701307	975.234573	-428.546060	523.851116	940.883330	-426.421060	547.509299	966.265112	-411.110261	577.283585	868.550815	-434.571806	627.060310	783.781919	-422.494889	638.743712	759.780795	-323.476279	306.856783	606.526153	-418.118713	321.988410	609.362563	-344.551297	221.741188	624.053394	-378.618712	328.921397	484.017530	-435.128782	540.636650	736.178011	-439.209709	475.864444	678.586931	-427.847236	388.945525	660.625842	-423.521038	490.799479	655.962969	-399.723879	414.976020	450.353737	-360.734782	-64.225191	850.927109	-240.198866	21.168895	84.263770	-442.268481	21.208335	84.099560	-43.846942	
753	3.7650	795.327978	1319.141869	-125.098294	749.245956	1252.272251	-472.094224	768.610407	1345.760032	-291.942111	768.792629	1212.140764	-284.863561	668.250717	1104.578007	-18.896597	727.710898	869.151019	-58.457626	547.644910	1053.365815	-520.039061	715.270325	887.550084	-441.876478	294.472535	1191.367351	-193.703092	399.974599	1176.406910	-369.269293	456.795686	1128.798121	-82.015393	428.056170	1112.666267	-358.765296	471.953140	1068.702945	-115.906597	343.032905	1203.101372	-138.648542	320.509174	1229.065184	-243.783413	375.131262	997.887786	-44.166920	341.234685	1074.680361	-412.794471	382.412157	871.617426	-56.721928	405.515402	786.602663	-66.093301	375.948063	703.145341	-73.167954	433.050307	786.349400	-90.862076	363.799447	611.188465	-102.773573	329.624684	593.505139	-199.150116	314.449316	524.904458	-65.779028	312.801619	435.832213	-77.725154	268.012106	360.397053	-72.356560	333.738545	432.020477	-111.283260	231.853437	265.445308	-70.010275	233.097837	272.831561	-145.556747	154.818002	277.775980	-102.827080	355.078150	106.546173	-134.002207	285.428094	140.951726	-61.698099	444.998774	978.899037	-426.736513	523.428050	945.206649	-424.968774	546.708870	970.727375	-409.795827	577.486087	873.326985	-433.156500	628.781839	788.941378	-421.059521	640.934905	765.142398	-322.366521	312.031215	604.527608	-416.451988	327.110499	607.670280	-343.039619	226.157390	619.530932	-376.500037	338.069710	483.409828	-435.006344	542.742494	739.432565	-438.596063	479.537718	680.237617	-426.455003	393.108563	660.238510	-422.051242	495.021363	657.829407	-398.434770	424.951808	451.881070	-361.686534	-64.221879	850.953849	-240.146439	21.146706	84.350591	-442.256316	21.193092	84.102964	-43.859220	
754	3.7700	797.302038	1318.303688	-129.754467	744.935467	1252.384982	-477.255154	767.718654	1345.366148	-295.666790	767.844829	1212.502295	-289.966560	669.960221	1105.622418	-20.800513	728.058417	869.147803	-58.325257	544.503321	1051.230909	-519.498192	715.017653	887.880386	-441.685320	295.274174	1193.771288	-190.259798	398.526366	1179.086552	-368.041284	458.944207	1129.702352	-81.742886	427.030970	1115.131167	-358.293637	473.247055	1069.756033	-115.861905	344.635969	1204.800403	-136.132455	321.063263	1231.233189	-240.677314	375.698067	999.404091	-43.041631	340.757530	1078.303516	-411.752887	382.695235	872.971120	-55.477264	405.170585	787.605453	-65.826296	375.266206	704.454204	-71.811668	432.666226	787.250450	-90.019487	362.219087	612.088495	-101.350166	327.728821	595.396389	-198.246542	312.292382	526.114025	-64.992364	308.736912	437.227449	-76.988576	262.448662	362.718346	-71.257807	329.179411	433.029947	-110.793027	224.302146	268.012615	-68.832008	225.372329	275.641214	-144.500968	147.353689	281.471238	-101.902068	345.312609	107.663935	-133.997931	276.225226	142.931329	-61.409454	444.232350	982.487969	-425.164489	522.273538	949.156245	-424.266172	544.809250	974.682678	-408.781525	577.144760	877.813369	-432.161417	629.758206	793.619514	-419.972793	642.734595	770.155665	-321.210477	316.909302	601.937882	-414.534288	332.076837	605.159551	-341.164115	230.396296	614.173298	-373.993706	346.962191	482.500047	-434.716074	544.692420	741.804075	-437.378839	482.868759	681.188892	-424.991914	396.599129	659.672418	-420.601408	498.909931	659.183684	-396.976504	434.795482	452.987268	-362.685029	-64.189530	850.995060	-240.066352	21.147914	84.400316	-442.251524	21.148763	84.079455	-43.857207	
